<svg xmlns="http://www.w3.org/2000/svg" width="600" height="420" viewBox="0 0 600 420">
  <path d="M 220.0 90.0 L 245.8 88.6 L 276.1 91.2 L 303.7 89.8 L 332.4 90.7" stroke="#1a1a1a" stroke-width="4.5" stroke-linecap="round" fill="none"/>
  <path d="M 220.0 90.0 L 218.4 128.7 L 220.9 171.6 L 219.6 217.8 L 221.7 260.9 L 220.0 330.0" stroke="#1a1a1a" stroke-width="4.5" stroke-linecap="round" fill="none"/>
  <path d="M 332.4 90.7 L 334.3 132.1 L 332.8 176.4 L 334.6 222.7 L 331.9 265.8 L 332.4 330.0" stroke="#1a1a1a" stroke-width="4.5" stroke-linecap="round" fill="none"/>
  <path d="M 220.0 330.0 L 251.7 331.2 L 283.4 329.8 L 301.9 331.0 L 332.4 330.0" stroke="#1a1a1a" stroke-width="4.5" stroke-linecap="round" fill="none"/>
  <path d="M 246.5 116.8 L 304.7 117.9 L 309.8 117.7" stroke="#1a1a1a" stroke-width="3" stroke-linecap="round" fill="none"/>
  <path d="M 246.0 143.5 L 295.4 143.9 L 315.9 143.6" stroke="#1a1a1a" stroke-width="3" stroke-linecap="round" fill="none"/>
  <path d="M 246.8 171.8 L 290.7 171.2 L 302.6 171.4" stroke="#1a1a1a" stroke-width="3" stroke-linecap="round" fill="none"/>
  <path d="M 246.2 199.6 L 301.1 200.9 L 316.7 199.8" stroke="#1a1a1a" stroke-width="3" stroke-linecap="round" fill="none"/>
  <path d="M 246.9 229.3 L 285.8 228.9 L 300.6 229.8" stroke="#1a1a1a" stroke-width="3" stroke-linecap="round" fill="none"/>
  <path d="M 344.8 145.2 L 388.1 145.8 L 388.0 170.2 L 355.6 170.1 L 344.8 157.0 L 344.8 145.2" stroke="#1a1a1a" stroke-width="3.5" stroke-linecap="round" fill="none"/>
  <path d="M 355.9 170.3 L 348.7 183.2 L 352.0 188.4" stroke="#1a1a1a" stroke-width="3" stroke-linecap="round" fill="none"/>
  <circle cx="288" cy="286" r="6" stroke="#1a1a1a" stroke-width="2" fill="#1a1a1a"/>
</svg>