<svg xmlns="http://www.w3.org/2000/svg" width="600" height="420" viewBox="0 0 600 420">
  <path d="M 238.1 114.7 L 270.3 115.9 L 298.8 114.3 L 328.5 116.1 L 361.9 114.7" stroke="#1a1a1a" stroke-width="4.5" stroke-linecap="round" fill="none"/>
  <path d="M 361.9 114.7 L 362.4 157.2 L 360.1 203.8 L 361.6 248.5 L 358.9 287.3 L 361.9 333.2" stroke="#1a1a1a" stroke-width="4.5" stroke-linecap="round" fill="none"/>
  <path d="M 361.9 333.2 L 332.7 332.8 L 298.2 334.1 L 269.1 333.6 L 238.1 333.2" stroke="#1a1a1a" stroke-width="4.5" stroke-linecap="round" fill="none"/>
  <path d="M 238.1 333.2 L 235.6 291.4 L 238.1 246.8 L 240.4 198.2 L 237.3 152.6 L 238.1 114.7" stroke="#1a1a1a" stroke-width="4.5" stroke-linecap="round" fill="none"/>
  <path d="M 247.3 158.4 L 248.1 175.9 L 246.6 189.3 L 248.9 208.7 L 247.1 223.5 L 246.4 238.0 L 247.3 253.1 L 248.8 271.6 L 247.3 289.3" stroke="#1a1a1a" stroke-width="2" stroke-linecap="round" fill="none"/>
  <path d="M 257.2 162.7 L 271.8 163.4 L 289.4 162.9 L 301.2 163.6 L 316.7 162.4 L 334.5 163.9 L 352.1 162.7" stroke="#1a1a1a" stroke-width="2" stroke-linecap="round" fill="none"/>
  <path d="M 257.2 162.7 L 271.4 179.3 L 289.8 187.6 L 302.1 196.2 L 316.3 205.1 L 334.9 213.8 L 352.1 227.4 L 352.1 253.1" stroke="#1a1a1a" stroke-width="2" stroke-linecap="round" fill="none"/>
  <path d="M 352.1 253.1 L 351.6 271.9 L 352.4 289.3" stroke="#1a1a1a" stroke-width="2" stroke-linecap="round" fill="none"/>
  <path d="M 257.2 162.7 L 256.9 179.8 L 258.4 196.3 L 257.1 213.9 L 256.6 228.4 L 258.3 246.1 L 257.2 262.7 L 256.4 281.2 L 257.2 299.7" stroke="#1a1a1a" stroke-width="2" stroke-linecap="round" fill="none"/>
  <path d="M 295.3 268.2 L 301.7 277.3 L 308.9 287.4 L 313.1 293.2" stroke="#1a1a1a" stroke-width="2" stroke-linecap="round" fill="none"/>
  <path d="M 300.1 277.6 L 307.4 277.2 L 313.8 277.8 L 320.4 277.4" stroke="#1a1a1a" stroke-width="2" stroke-linecap="round" fill="none"/>
  <circle cx="300.1" cy="277.6" r="4.2" stroke="#1a1a1a" stroke-width="2" fill="#1a1a1a"/>
</svg>
